<?xml version="1.0" standalone="no"?>
<!DOCTYPE svg PUBLIC "-//W3C//DTD SVG 20010904//EN"
 "http://www.w3.org/TR/2001/REC-SVG-20010904/DTD/svg10.dtd">
<svg version="1.0" xmlns="http://www.w3.org/2000/svg"
 width="842.000000pt" height="842.000000pt" viewBox="0 0 842.000000 842.000000"
 preserveAspectRatio="xMidYMid meet">
<metadata>
Created by potrace 1.14, written by Peter Selinger 2001-2017
</metadata>
<g transform="translate(0.000000,842.000000) scale(0.100000,-0.100000)"
fill="#000000" stroke="none">
<path d="M3872 7892 c-53 -4 -60 -18 -59 -122 1 -89 -10 -113 -63 -140 -168
-86 -293 -246 -336 -430 -12 -52 -10 -216 3 -265 25 -92 25 -112 4 -161 -12
-26 -21 -53 -21 -60 0 -8 -5 -14 -12 -14 -6 0 -9 -3 -5 -6 3 -3 2 -17 -4 -31
-5 -13 -11 -36 -14 -51 -3 -15 -7 -38 -10 -52 -13 -57 -5 -185 15 -261 6 -23
8 -45 3 -49 -4 -4 -39 -15 -78 -25 -82 -21 -237 -71 -280 -89 -16 -8 -52 -22
-80 -32 -27 -10 -85 -35 -128 -56 -43 -21 -80 -38 -82 -38 -9 0 -203 -114
-260 -154 -89 -61 -204 -155 -221 -181 -21 -33 -12 -54 49 -112 57 -54 117
-126 117 -141 0 -5 9 -17 20 -27 11 -10 20 -24 20 -31 0 -7 5 -14 10 -16 6 -2
12 -17 13 -33 2 -27 -3 -32 -57 -58 -54 -26 -209 -72 -281 -82 -68 -10 -186
-45 -237 -71 -138 -69 -254 -202 -274 -311 -3 -15 -7 -29 -8 -31 -4 -4 27
-107 45 -147 7 -16 25 -48 39 -69 23 -37 24 -40 6 -50 -88 -53 -130 -102 -159
-187 -13 -39 -29 -116 -29 -144 0 -28 12 -135 18 -161 12 -50 55 -147 86 -191
57 -84 102 -92 132 -22 41 92 103 118 316 135 156 12 255 53 358 148 37 35 39
30 18 -71 -8 -37 -17 -88 -20 -113 -4 -31 -13 -50 -28 -60 -12 -8 -31 -25 -42
-37 -27 -32 -67 -29 -191 11 -124 40 -173 41 -238 3 -62 -37 -91 -97 -83 -172
8 -80 41 -126 113 -160 56 -27 150 -18 258 26 91 36 118 37 133 4 6 -14 18
-25 25 -25 28 0 48 -27 57 -80 23 -136 38 -195 65 -272 14 -38 21 -68 17 -68
-4 0 -2 -4 3 -8 6 -4 23 -37 39 -74 15 -37 53 -109 83 -160 70 -118 76 -148
33 -188 -18 -17 -41 -30 -51 -30 -10 0 -19 -4 -19 -8 0 -5 -6 -9 -14 -9 -24 0
-129 -45 -167 -72 -54 -37 -87 -104 -85 -169 1 -54 -8 -68 -19 -29 -4 12 -13
37 -21 54 -52 116 11 245 159 323 31 17 57 38 57 46 0 8 -25 25 -55 39 -65 28
-203 117 -259 166 -106 92 -222 232 -287 344 -45 79 -98 190 -99 207 0 9 -4
19 -9 22 -4 3 -12 20 -16 38 -4 18 -9 36 -10 41 -1 4 -3 16 -4 26 0 10 -9 29
-19 41 l-19 23 -20 -22 c-21 -23 -59 -131 -78 -226 -4 -22 -10 -49 -12 -60 -2
-11 -6 -29 -8 -40 -20 -92 -26 -427 -11 -545 11 -90 54 -290 76 -359 11 -35
20 -68 20 -73 0 -17 53 -142 66 -155 8 -8 27 -11 52 -7 82 11 159 -52 239
-195 20 -36 40 -67 45 -69 4 -2 8 -8 8 -14 0 -14 103 -169 154 -233 40 -50
186 -198 241 -245 67 -56 187 -142 271 -193 105 -64 289 -157 310 -157 8 0 14
-5 14 -12 0 -6 3 -9 6 -5 3 3 25 -2 47 -12 23 -10 78 -30 122 -45 338 -117
336 -116 457 -176 125 -61 217 -128 321 -233 53 -54 107 -100 119 -102 16 -4
44 18 120 94 163 165 333 262 628 361 69 23 133 46 142 51 10 5 19 5 22 0 9
-14 -113 -134 -184 -181 -69 -46 -172 -123 -204 -152 -25 -23 -48 -16 -109 34
-58 49 -82 46 -120 -13 -33 -50 -34 -85 -5 -116 13 -14 18 -27 13 -31 -23 -17
-38 -45 -42 -81 -4 -34 -1 -42 21 -56 22 -15 67 -23 138 -25 9 0 19 -8 23 -19
12 -40 52 -71 92 -71 59 0 82 21 76 69 -5 37 -4 40 23 47 16 4 35 11 42 17 6
5 12 7 12 3 0 -3 18 5 40 19 22 14 42 25 46 25 5 0 108 68 194 127 47 32 196
188 242 253 82 116 105 160 152 294 27 76 36 91 67 110 71 42 219 151 288 211
39 34 144 143 188 195 31 36 163 227 163 236 0 3 15 28 33 57 18 29 38 63 45
78 24 47 94 120 134 140 31 16 51 19 83 14 39 -5 45 -3 62 22 37 54 122 352
137 483 2 14 6 39 10 55 27 125 22 449 -8 595 -52 251 -96 355 -133 317 -8 -7
-16 -27 -19 -43 -3 -16 -16 -60 -30 -99 -13 -38 -26 -77 -28 -85 -13 -46 -139
-251 -203 -330 -59 -72 -193 -197 -261 -243 -38 -26 -104 -63 -145 -82 -89
-42 -92 -60 -16 -95 27 -13 69 -43 93 -67 86 -84 102 -165 56 -280 -82 -203
-237 -388 -442 -525 -79 -53 -78 -53 -145 9 -39 37 -84 63 -156 92 -63 25
-202 3 -285 -45 -23 -14 -62 -46 -86 -71 l-45 -46 -27 18 c-56 37 -109 110
-130 183 -12 42 -13 56 -3 68 6 8 14 12 17 9 3 -3 11 0 19 6 7 6 13 9 13 6 0
-7 198 79 215 93 6 5 15 7 18 3 4 -3 7 -1 7 5 0 7 5 12 11 12 6 0 30 12 53 28
22 15 53 33 68 41 15 8 37 22 47 33 11 10 23 18 27 18 6 0 154 119 183 148 7
7 20 11 28 8 8 -3 30 -6 49 -6 36 0 74 -32 194 -165 43 -48 100 -93 100 -79 0
4 6 2 13 -4 23 -20 107 -5 151 25 79 55 99 139 56 225 -34 67 -80 100 -185
136 -38 13 -74 28 -79 33 -6 5 -18 9 -28 9 -20 0 -46 35 -53 71 -3 15 9 47 36
92 129 217 198 404 233 628 8 54 15 67 40 73 13 3 31 17 40 31 21 31 42 31
119 0 74 -29 162 -49 182 -41 8 3 15 1 15 -5 0 -6 7 -6 20 1 11 6 20 8 20 5 0
-3 16 2 36 10 146 61 157 274 18 340 -50 23 -131 24 -184 2 -49 -21 -104 -36
-154 -42 -53 -7 -58 -6 -77 19 -11 14 -27 26 -34 26 -20 0 -33 28 -40 86 -12
85 -13 92 -19 111 -3 10 -8 33 -11 52 -6 38 -7 38 59 -22 34 -30 144 -89 191
-102 36 -9 49 -11 145 -19 118 -10 146 -15 203 -36 61 -23 80 -40 101 -92 25
-59 58 -70 98 -33 39 36 99 148 120 224 25 89 25 232 1 306 -4 11 -8 22 -8 25
-14 56 -83 137 -142 165 -18 9 -33 17 -33 19 0 2 16 30 35 62 19 32 35 66 35
76 0 10 4 18 8 18 5 0 9 6 10 13 0 6 4 32 9 57 29 146 -175 369 -379 416 -22
5 -40 9 -103 24 -27 7 -57 14 -65 15 -12 2 -74 14 -100 20 -84 19 -199 70
-207 91 -8 21 104 184 175 254 93 92 91 118 -22 205 -21 17 -45 36 -52 43 -7
6 -17 12 -22 12 -6 0 -12 3 -14 8 -1 4 -28 24 -58 43 -247 162 -512 278 -852
373 -32 9 -58 18 -58 21 0 2 4 15 9 28 21 55 26 128 20 288 0 14 13 48 28 75
63 107 91 210 88 320 -3 92 -11 127 -47 199 -44 90 -120 157 -210 186 -143 46
-312 21 -431 -63 -27 -19 -33 -19 -110 -7 -167 26 -307 10 -442 -51 -38 -17
-72 -27 -76 -23 -4 4 8 40 28 80 43 86 62 98 143 83 30 -5 78 -13 105 -16 49
-5 51 -5 72 29 12 19 24 48 26 65 4 25 0 34 -21 49 -39 26 -75 40 -94 37 -25
-3 -30 24 -9 44 11 9 31 28 46 41 28 26 30 58 8 111 -21 49 -50 57 -98 26 -13
-9 -26 -16 -28 -16 -2 0 -1 21 2 48 4 26 5 56 3 68 -4 26 -49 40 -110 36z
m626 -1205 c2 -9 -2 -23 -10 -30 -25 -25 -156 -117 -166 -117 -6 0 -12 -3 -14
-7 -4 -10 -111 -64 -119 -60 -3 1 -12 -3 -20 -10 -26 -21 -252 -86 -346 -99
-40 -5 -43 -4 -44 18 -1 13 -2 42 -4 65 -3 60 3 65 60 47 63 -19 165 -24 230
-12 28 4 57 9 65 9 8 1 60 23 115 50 74 36 116 64 160 107 61 60 87 71 93 39z
m-1901 -2244 c-2 -5 -11 -24 -19 -43 -9 -19 -27 -60 -40 -90 -14 -30 -28 -67
-32 -82 -3 -16 -10 -28 -15 -28 -16 0 -56 54 -92 123 -34 67 -34 84 2 91 8 2
21 6 29 9 8 3 35 8 59 11 24 3 45 7 47 9 7 7 65 7 61 0z m3253 -8 c68 -8 140
-30 140 -42 0 -23 -109 -193 -124 -193 -6 0 -36 60 -36 71 0 8 -42 106 -61
142 -12 23 -2 39 19 33 10 -3 37 -7 62 -11z m-2899 -2016 c9 -17 7 -26 -9 -48
-26 -36 -50 -106 -72 -210 -24 -114 -22 -307 4 -369 10 -24 17 -45 14 -47 -6
-6 -85 35 -140 73 -26 18 -49 32 -51 32 -21 0 -267 245 -267 266 0 3 -11 20
-24 37 -40 54 -78 127 -67 127 6 0 11 -6 11 -14 0 -16 59 -65 99 -82 39 -16
111 -9 152 15 18 12 59 49 89 83 103 119 138 147 183 151 23 2 47 4 54 5 7 1
17 -8 24 -19z m347 -248 c37 -21 101 -53 142 -70 41 -18 84 -36 95 -41 11 -5
37 -15 59 -22 37 -12 38 -14 32 -53 -19 -141 -161 -262 -353 -300 -30 -6 -33
-4 -56 42 -44 85 -55 141 -52 249 5 122 34 234 62 234 2 0 35 -17 71 -39z"/>
</g>
</svg>
